<svg xmlns="http://www.w3.org/2000/svg" viewBox="0 0 898 153" role="img" aria-labelledby="title desc"><title id="title">Oxygen Gear</title><desc id="desc">Oxygen Gear Equipment, established 2020</desc><rect width="898" height="153" fill="#fff"/><rect x="1.5" y="1.5" width="895" height="150" fill="none" stroke="#111" stroke-width="3"/><rect x="86" y="28" width="86" height="86" fill="#ed1c24"/><path d="M105 91c4-15 14-19 20-29 3-5 4-12 9-19 2 8 7 12 7 19 0 5-3 8-2 13 2-4 6-7 10-9-1 11-5 20-14 25-7 4-19 5-30 0Z" fill="#050505"/><text x="129" y="106" text-anchor="middle" font-family="Arial,Helvetica,sans-serif" font-size="15" font-weight="900" fill="#050505">OXYGEN</text><text x="448" y="89" text-anchor="middle" font-family="Arial,Helvetica,sans-serif" font-size="68" font-weight="900" letter-spacing="-3" fill="#050505">OXYGEN GEAR</text><text x="702" y="123" font-family="Arial,Helvetica,sans-serif" font-size="12" font-weight="700" letter-spacing="2" fill="#111">EST 2020</text></svg>